<svg width="1363" height="301" viewBox="0 0 1363 301" fill="none" xmlns="http://www.w3.org/2000/svg">
<rect width="1363" height="301" rx="15" fill="#F0F0F0"/>
<path d="M0 15C0 6.71573 6.71573 0 15 0H37V301H15C6.71573 301 0 294.284 0 286V15Z" fill="#FF5F9E"/>
<path d="M104.004 140.455L111.792 104.898H116.438L118.963 107.933L110.665 144H105.535L104.004 140.455ZM101.937 104.898L108.516 140.724L106.824 144H100.889L92.5908 104.898H101.937ZM123.233 140.536L129.759 104.898H139.078L130.779 144H124.871L123.233 140.536ZM119.795 104.898L127.771 140.67L126.16 144H121.031L112.544 107.879L115.176 104.898H119.795ZM155.567 144.537C153.204 144.537 151.091 144.17 149.229 143.436C147.367 142.684 145.792 141.655 144.502 140.348C143.231 139.041 142.256 137.537 141.575 135.836C140.913 134.135 140.582 132.336 140.582 130.438V129.417C140.582 127.287 140.877 125.318 141.468 123.509C142.059 121.683 142.936 120.09 144.1 118.729C145.263 117.368 146.722 116.312 148.477 115.56C150.232 114.79 152.273 114.405 154.6 114.405C156.659 114.405 158.503 114.736 160.132 115.399C161.762 116.061 163.14 117.01 164.268 118.246C165.414 119.481 166.282 120.976 166.873 122.73C167.482 124.485 167.786 126.454 167.786 128.639V132.318H144.046V126.651H158.951V125.953C158.969 124.986 158.799 124.163 158.44 123.482C158.1 122.802 157.599 122.283 156.937 121.925C156.274 121.567 155.468 121.388 154.52 121.388C153.535 121.388 152.72 121.603 152.076 122.032C151.449 122.462 150.957 123.053 150.599 123.805C150.258 124.539 150.017 125.389 149.874 126.356C149.73 127.323 149.659 128.343 149.659 129.417V130.438C149.659 131.512 149.802 132.488 150.088 133.365C150.393 134.243 150.822 134.994 151.377 135.621C151.95 136.23 152.631 136.704 153.418 137.044C154.224 137.385 155.137 137.555 156.158 137.555C157.393 137.555 158.611 137.322 159.81 136.856C161.01 136.391 162.039 135.621 162.898 134.547L167.007 139.435C166.417 140.276 165.575 141.091 164.483 141.878C163.409 142.666 162.12 143.311 160.616 143.812C159.112 144.295 157.429 144.537 155.567 144.537ZM186.558 136.695V124.718C186.558 123.894 186.442 123.187 186.209 122.596C185.976 122.005 185.609 121.549 185.108 121.227C184.607 120.886 183.935 120.716 183.094 120.716C182.413 120.716 181.832 120.833 181.348 121.065C180.865 121.298 180.498 121.647 180.247 122.113C179.996 122.578 179.871 123.169 179.871 123.885H170.821C170.821 122.542 171.116 121.298 171.707 120.152C172.316 118.989 173.175 117.977 174.285 117.118C175.413 116.258 176.756 115.596 178.313 115.13C179.889 114.647 181.644 114.405 183.577 114.405C185.887 114.405 187.946 114.79 189.754 115.56C191.58 116.33 193.021 117.485 194.078 119.024C195.134 120.546 195.662 122.462 195.662 124.771V136.668C195.662 138.566 195.77 140.007 195.984 140.992C196.199 141.959 196.504 142.809 196.897 143.543V144H187.82C187.391 143.105 187.068 142.013 186.854 140.724C186.657 139.417 186.558 138.074 186.558 136.695ZM187.659 126.249L187.713 131.083H183.711C182.87 131.083 182.154 131.199 181.563 131.432C180.99 131.664 180.525 131.987 180.167 132.398C179.826 132.792 179.576 133.24 179.415 133.741C179.271 134.243 179.2 134.771 179.2 135.326C179.2 135.863 179.325 136.346 179.576 136.776C179.844 137.188 180.202 137.51 180.65 137.743C181.097 137.975 181.599 138.092 182.154 138.092C183.156 138.092 184.007 137.904 184.705 137.528C185.421 137.134 185.967 136.66 186.343 136.104C186.719 135.549 186.907 135.03 186.907 134.547L188.895 138.253C188.536 138.969 188.125 139.694 187.659 140.428C187.212 141.162 186.648 141.843 185.967 142.469C185.305 143.078 184.49 143.579 183.523 143.973C182.557 144.349 181.384 144.537 180.005 144.537C178.215 144.537 176.568 144.17 175.064 143.436C173.578 142.702 172.387 141.681 171.492 140.375C170.597 139.05 170.149 137.528 170.149 135.809C170.149 134.305 170.418 132.962 170.955 131.781C171.51 130.599 172.343 129.597 173.453 128.773C174.563 127.949 175.977 127.323 177.696 126.893C179.415 126.463 181.438 126.249 183.765 126.249H187.659ZM215.992 114.942V121.227H198.482V114.942H215.992ZM202.161 107.718H211.211V134.52C211.211 135.29 211.301 135.89 211.48 136.319C211.659 136.731 211.963 137.027 212.393 137.206C212.841 137.367 213.431 137.447 214.166 137.447C214.685 137.447 215.114 137.438 215.455 137.42C215.795 137.385 216.117 137.34 216.421 137.286V143.758C215.652 144.009 214.846 144.197 214.004 144.322C213.163 144.465 212.268 144.537 211.319 144.537C209.385 144.537 207.729 144.233 206.351 143.624C204.99 143.015 203.951 142.057 203.235 140.75C202.519 139.444 202.161 137.743 202.161 135.648V107.718ZM228.453 102.75V144H219.402V102.75H228.453ZM227.378 128.478L225.257 128.531C225.257 126.49 225.507 124.61 226.009 122.892C226.51 121.173 227.226 119.678 228.157 118.407C229.088 117.136 230.207 116.151 231.514 115.453C232.821 114.754 234.271 114.405 235.865 114.405C237.297 114.405 238.604 114.611 239.786 115.023C240.985 115.435 242.015 116.097 242.874 117.01C243.751 117.923 244.423 119.114 244.888 120.582C245.372 122.05 245.613 123.84 245.613 125.953V144H236.509V125.899C236.509 124.718 236.339 123.805 235.999 123.16C235.677 122.498 235.211 122.041 234.603 121.791C233.994 121.522 233.251 121.388 232.374 121.388C231.317 121.388 230.458 121.567 229.795 121.925C229.133 122.283 228.623 122.784 228.265 123.429C227.924 124.055 227.692 124.798 227.566 125.658C227.441 126.517 227.378 127.457 227.378 128.478ZM264.708 144.537C262.344 144.537 260.232 144.17 258.37 143.436C256.508 142.684 254.932 141.655 253.643 140.348C252.372 139.041 251.396 137.537 250.716 135.836C250.053 134.135 249.722 132.336 249.722 130.438V129.417C249.722 127.287 250.018 125.318 250.608 123.509C251.199 121.683 252.076 120.09 253.24 118.729C254.404 117.368 255.863 116.312 257.618 115.56C259.372 114.79 261.413 114.405 263.741 114.405C265.8 114.405 267.644 114.736 269.273 115.399C270.902 116.061 272.281 117.01 273.409 118.246C274.555 119.481 275.423 120.976 276.014 122.73C276.622 124.485 276.927 126.454 276.927 128.639V132.318H253.187V126.651H268.091V125.953C268.109 124.986 267.939 124.163 267.581 123.482C267.241 122.802 266.74 122.283 266.077 121.925C265.415 121.567 264.609 121.388 263.66 121.388C262.675 121.388 261.861 121.603 261.216 122.032C260.59 122.462 260.097 123.053 259.739 123.805C259.399 124.539 259.157 125.389 259.014 126.356C258.871 127.323 258.799 128.343 258.799 129.417V130.438C258.799 131.512 258.943 132.488 259.229 133.365C259.533 134.243 259.963 134.994 260.518 135.621C261.091 136.23 261.771 136.704 262.559 137.044C263.365 137.385 264.278 137.555 265.298 137.555C266.534 137.555 267.751 137.322 268.951 136.856C270.15 136.391 271.18 135.621 272.039 134.547L276.148 139.435C275.557 140.276 274.716 141.091 273.624 141.878C272.549 142.666 271.26 143.311 269.756 143.812C268.252 144.295 266.569 144.537 264.708 144.537ZM289.737 122.14V144H280.687V114.942H289.146L289.737 122.14ZM298.331 114.728L298.169 123.133C297.811 123.097 297.328 123.053 296.719 122.999C296.111 122.945 295.6 122.918 295.188 122.918C294.132 122.918 293.219 123.044 292.449 123.294C291.697 123.527 291.071 123.885 290.569 124.369C290.086 124.834 289.728 125.425 289.495 126.141C289.28 126.857 289.182 127.69 289.2 128.639L287.562 127.564C287.562 125.613 287.75 123.84 288.125 122.247C288.519 120.636 289.074 119.248 289.791 118.084C290.507 116.903 291.375 115.999 292.396 115.372C293.416 114.728 294.562 114.405 295.833 114.405C296.281 114.405 296.719 114.432 297.149 114.486C297.597 114.54 297.99 114.62 298.331 114.728ZM331.524 127.376H321.453L321.399 121.2H329.563C331.032 121.2 332.204 121.039 333.082 120.716C333.959 120.376 334.594 119.884 334.988 119.239C335.4 118.595 335.606 117.789 335.606 116.822C335.606 115.712 335.4 114.817 334.988 114.137C334.576 113.456 333.923 112.964 333.028 112.66C332.151 112.337 331.014 112.176 329.617 112.176H324.998V144H315.572V104.898H329.617C332.034 104.898 334.192 105.122 336.089 105.57C337.987 106 339.598 106.662 340.923 107.557C342.266 108.452 343.287 109.58 343.985 110.941C344.683 112.284 345.032 113.868 345.032 115.694C345.032 117.288 344.692 118.783 344.012 120.179C343.331 121.576 342.194 122.713 340.601 123.59C339.026 124.449 336.868 124.897 334.129 124.933L331.524 127.376ZM331.148 144H319.17L322.393 136.749H331.148C332.437 136.749 333.466 136.552 334.236 136.158C335.024 135.746 335.588 135.209 335.928 134.547C336.286 133.867 336.465 133.115 336.465 132.291C336.465 131.288 336.295 130.42 335.955 129.686C335.633 128.952 335.114 128.388 334.397 127.994C333.681 127.582 332.723 127.376 331.524 127.376H323.602L323.655 121.2H333.135L335.337 123.67C337.951 123.563 340.019 123.93 341.541 124.771C343.081 125.613 344.182 126.723 344.844 128.102C345.507 129.48 345.838 130.921 345.838 132.425C345.838 134.986 345.283 137.125 344.173 138.844C343.081 140.562 341.443 141.852 339.258 142.711C337.074 143.57 334.371 144 331.148 144ZM365.738 136.695V124.718C365.738 123.894 365.621 123.187 365.389 122.596C365.156 122.005 364.789 121.549 364.288 121.227C363.786 120.886 363.115 120.716 362.273 120.716C361.593 120.716 361.011 120.833 360.528 121.065C360.044 121.298 359.677 121.647 359.427 122.113C359.176 122.578 359.051 123.169 359.051 123.885H350C350 122.542 350.296 121.298 350.887 120.152C351.495 118.989 352.355 117.977 353.465 117.118C354.593 116.258 355.936 115.596 357.493 115.13C359.069 114.647 360.823 114.405 362.757 114.405C365.066 114.405 367.125 114.79 368.934 115.56C370.76 116.33 372.201 117.485 373.257 119.024C374.314 120.546 374.842 122.462 374.842 124.771V136.668C374.842 138.566 374.949 140.007 375.164 140.992C375.379 141.959 375.683 142.809 376.077 143.543V144H367C366.57 143.105 366.248 142.013 366.033 140.724C365.836 139.417 365.738 138.074 365.738 136.695ZM366.839 126.249L366.893 131.083H362.891C362.05 131.083 361.333 131.199 360.743 131.432C360.17 131.664 359.704 131.987 359.346 132.398C359.006 132.792 358.755 133.24 358.594 133.741C358.451 134.243 358.379 134.771 358.379 135.326C358.379 135.863 358.505 136.346 358.755 136.776C359.024 137.188 359.382 137.51 359.83 137.743C360.277 137.975 360.778 138.092 361.333 138.092C362.336 138.092 363.187 137.904 363.885 137.528C364.601 137.134 365.147 136.66 365.523 136.104C365.899 135.549 366.087 135.03 366.087 134.547L368.074 138.253C367.716 138.969 367.304 139.694 366.839 140.428C366.391 141.162 365.827 141.843 365.147 142.469C364.485 143.078 363.67 143.579 362.703 143.973C361.736 144.349 360.564 144.537 359.185 144.537C357.395 144.537 355.748 144.17 354.244 143.436C352.758 142.702 351.567 141.681 350.672 140.375C349.777 139.05 349.329 137.528 349.329 135.809C349.329 134.305 349.598 132.962 350.135 131.781C350.69 130.599 351.522 129.597 352.632 128.773C353.742 127.949 355.157 127.323 356.875 126.893C358.594 126.463 360.617 126.249 362.945 126.249H366.839ZM392.137 137.555C392.978 137.555 393.694 137.403 394.285 137.098C394.894 136.776 395.35 136.328 395.655 135.755C395.977 135.165 396.129 134.457 396.111 133.634H404.625C404.642 135.818 404.105 137.734 403.013 139.381C401.939 141.01 400.471 142.281 398.609 143.194C396.765 144.09 394.679 144.537 392.352 144.537C390.078 144.537 388.09 144.17 386.39 143.436C384.689 142.684 383.265 141.646 382.12 140.321C380.992 138.978 380.141 137.411 379.568 135.621C379.013 133.831 378.736 131.888 378.736 129.793V129.176C378.736 127.081 379.013 125.139 379.568 123.348C380.141 121.54 380.992 119.973 382.12 118.648C383.265 117.306 384.68 116.267 386.363 115.533C388.064 114.781 390.042 114.405 392.298 114.405C394.715 114.405 396.845 114.862 398.689 115.775C400.551 116.688 402.011 118.013 403.067 119.75C404.123 121.486 404.642 123.59 404.625 126.061H396.111C396.129 125.183 395.995 124.396 395.708 123.697C395.422 122.999 394.974 122.444 394.366 122.032C393.775 121.603 393.014 121.388 392.083 121.388C391.152 121.388 390.4 121.594 389.827 122.005C389.254 122.417 388.816 122.99 388.511 123.724C388.225 124.44 388.028 125.264 387.92 126.195C387.831 127.126 387.786 128.119 387.786 129.176V129.793C387.786 130.868 387.831 131.879 387.92 132.828C388.028 133.759 388.234 134.583 388.538 135.299C388.842 135.997 389.281 136.552 389.854 136.964C390.427 137.358 391.188 137.555 392.137 137.555ZM417.623 102.723V144H408.572V102.723H417.623ZM436.207 114.942L423.584 129.74L416.978 136.346L413.03 130.599L418.536 123.429L425.357 114.942H436.207ZM426.512 144L418.75 130.76L425.438 126.007L436.878 144H426.512ZM452.105 144.537C449.742 144.537 447.629 144.17 445.767 143.436C443.905 142.684 442.33 141.655 441.041 140.348C439.769 139.041 438.794 137.537 438.113 135.836C437.451 134.135 437.12 132.336 437.12 130.438V129.417C437.12 127.287 437.415 125.318 438.006 123.509C438.597 121.683 439.474 120.09 440.638 118.729C441.801 117.368 443.261 116.312 445.015 115.56C446.77 114.79 448.811 114.405 451.138 114.405C453.197 114.405 455.041 114.736 456.67 115.399C458.3 116.061 459.678 117.01 460.806 118.246C461.952 119.481 462.82 120.976 463.411 122.73C464.02 124.485 464.324 126.454 464.324 128.639V132.318H440.584V126.651H455.489V125.953C455.507 124.986 455.337 124.163 454.979 123.482C454.638 122.802 454.137 122.283 453.475 121.925C452.812 121.567 452.007 121.388 451.058 121.388C450.073 121.388 449.258 121.603 448.614 122.032C447.987 122.462 447.495 123.053 447.137 123.805C446.797 124.539 446.555 125.389 446.412 126.356C446.268 127.323 446.197 128.343 446.197 129.417V130.438C446.197 131.512 446.34 132.488 446.626 133.365C446.931 134.243 447.361 134.994 447.916 135.621C448.488 136.23 449.169 136.704 449.957 137.044C450.762 137.385 451.675 137.555 452.696 137.555C453.931 137.555 455.149 137.322 456.348 136.856C457.548 136.391 458.577 135.621 459.437 134.547L463.545 139.435C462.955 140.276 462.113 141.091 461.021 141.878C459.947 142.666 458.658 143.311 457.154 143.812C455.65 144.295 453.967 144.537 452.105 144.537ZM476.893 121.146V144H467.842V114.942H476.329L476.893 121.146ZM475.818 128.478L473.697 128.531C473.697 126.311 473.965 124.333 474.502 122.596C475.04 120.842 475.8 119.356 476.785 118.138C477.77 116.921 478.943 115.999 480.303 115.372C481.682 114.728 483.213 114.405 484.896 114.405C486.238 114.405 487.465 114.602 488.575 114.996C489.703 115.39 490.669 116.026 491.475 116.903C492.299 117.78 492.925 118.944 493.355 120.394C493.803 121.826 494.026 123.599 494.026 125.711V144H484.922V125.685C484.922 124.521 484.761 123.635 484.439 123.026C484.117 122.399 483.651 121.97 483.042 121.737C482.434 121.504 481.691 121.388 480.813 121.388C479.882 121.388 479.095 121.567 478.45 121.925C477.806 122.283 477.286 122.784 476.893 123.429C476.517 124.055 476.239 124.798 476.06 125.658C475.899 126.517 475.818 127.457 475.818 128.478ZM515.752 137.34V102.75H524.856V144H516.692L515.752 137.34ZM497.92 129.82V129.256C497.92 127.054 498.162 125.049 498.646 123.241C499.129 121.415 499.845 119.848 500.794 118.541C501.743 117.216 502.924 116.196 504.339 115.479C505.753 114.763 507.382 114.405 509.227 114.405C510.874 114.405 512.315 114.79 513.55 115.56C514.786 116.312 515.842 117.368 516.719 118.729C517.597 120.09 518.313 121.683 518.868 123.509C519.423 125.318 519.843 127.269 520.13 129.364V130.035C519.843 132.005 519.423 133.867 518.868 135.621C518.313 137.358 517.597 138.897 516.719 140.24C515.842 141.583 514.777 142.639 513.523 143.409C512.288 144.161 510.838 144.537 509.173 144.537C507.329 144.537 505.7 144.17 504.285 143.436C502.889 142.702 501.716 141.673 500.767 140.348C499.836 139.023 499.129 137.465 498.646 135.675C498.162 133.884 497.92 131.933 497.92 129.82ZM506.971 129.256V129.82C506.971 130.912 507.042 131.924 507.186 132.855C507.329 133.786 507.57 134.61 507.911 135.326C508.269 136.024 508.734 136.57 509.307 136.964C509.898 137.358 510.623 137.555 511.482 137.555C512.646 137.555 513.604 137.277 514.356 136.722C515.126 136.167 515.69 135.379 516.048 134.359C516.424 133.338 516.585 132.139 516.531 130.76V128.639C516.567 127.457 516.486 126.419 516.29 125.523C516.093 124.61 515.779 123.849 515.35 123.241C514.938 122.632 514.41 122.175 513.765 121.871C513.139 121.549 512.396 121.388 511.536 121.388C510.695 121.388 509.979 121.585 509.388 121.979C508.815 122.372 508.349 122.927 507.991 123.644C507.633 124.342 507.374 125.174 507.212 126.141C507.051 127.09 506.971 128.128 506.971 129.256ZM560.682 113.116L551.148 144H541.023L555.391 104.898H561.81L560.682 113.116ZM568.577 144L559.017 113.116L557.781 104.898H564.28L578.729 144H568.577ZM568.201 129.417V136.695H548.14V129.417H568.201ZM597.205 130.733H587.483V123.456H597.205C598.53 123.456 599.604 123.232 600.428 122.784C601.251 122.337 601.851 121.719 602.227 120.931C602.621 120.125 602.818 119.221 602.818 118.219C602.818 117.145 602.621 116.151 602.227 115.238C601.851 114.325 601.251 113.591 600.428 113.036C599.604 112.463 598.53 112.176 597.205 112.176H591.028V144H581.602V104.898H597.205C600.338 104.898 603.033 105.471 605.289 106.617C607.562 107.763 609.308 109.339 610.525 111.344C611.743 113.331 612.352 115.605 612.352 118.165C612.352 120.689 611.743 122.892 610.525 124.771C609.308 126.651 607.562 128.119 605.289 129.176C603.033 130.214 600.338 130.733 597.205 130.733ZM627.444 104.898V144H618.045V104.898H627.444Z" fill="black"/>
<path d="M96.563 55.1172H100.904L107.295 73.3862L113.687 55.1172H118.028L109.039 80H105.552L96.563 55.1172ZM94.2217 55.1172H98.5454L99.3315 72.9248V80H94.2217V55.1172ZM116.045 55.1172H120.386V80H115.259V72.9248L116.045 55.1172ZM123.787 70.9424V70.5835C123.787 69.2277 123.981 67.9801 124.368 66.8408C124.756 65.6901 125.319 64.6932 126.06 63.8501C126.801 63.007 127.712 62.3519 128.794 61.8848C129.877 61.4062 131.119 61.167 132.52 61.167C133.921 61.167 135.169 61.4062 136.263 61.8848C137.356 62.3519 138.274 63.007 139.014 63.8501C139.766 64.6932 140.336 65.6901 140.723 66.8408C141.111 67.9801 141.304 69.2277 141.304 70.5835V70.9424C141.304 72.2868 141.111 73.5343 140.723 74.6851C140.336 75.8244 139.766 76.8213 139.014 77.6758C138.274 78.5189 137.362 79.174 136.28 79.6411C135.197 80.1082 133.956 80.3418 132.554 80.3418C131.153 80.3418 129.905 80.1082 128.812 79.6411C127.729 79.174 126.812 78.5189 126.06 77.6758C125.319 76.8213 124.756 75.8244 124.368 74.6851C123.981 73.5343 123.787 72.2868 123.787 70.9424ZM128.709 70.5835V70.9424C128.709 71.7171 128.777 72.4406 128.914 73.1128C129.051 73.785 129.267 74.3774 129.563 74.8901C129.871 75.3914 130.27 75.7845 130.76 76.0693C131.25 76.3542 131.848 76.4966 132.554 76.4966C133.238 76.4966 133.825 76.3542 134.314 76.0693C134.804 75.7845 135.197 75.3914 135.494 74.8901C135.79 74.3774 136.006 73.785 136.143 73.1128C136.291 72.4406 136.365 71.7171 136.365 70.9424V70.5835C136.365 69.8315 136.291 69.1252 136.143 68.4644C136.006 67.7922 135.784 67.1997 135.477 66.687C135.18 66.1629 134.787 65.7528 134.297 65.4565C133.807 65.1603 133.215 65.0122 132.52 65.0122C131.825 65.0122 131.233 65.1603 130.743 65.4565C130.264 65.7528 129.871 66.1629 129.563 66.687C129.267 67.1997 129.051 67.7922 128.914 68.4644C128.777 69.1252 128.709 69.8315 128.709 70.5835ZM149.131 53.75V80H144.209V53.75H149.131ZM148.431 70.105H147.081C147.092 68.8175 147.263 67.6326 147.593 66.5503C147.924 65.4565 148.396 64.5109 149.012 63.7134C149.627 62.9045 150.362 62.2778 151.216 61.8335C152.082 61.3892 153.039 61.167 154.087 61.167C154.999 61.167 155.825 61.298 156.565 61.5601C157.317 61.8107 157.961 62.2209 158.497 62.7905C159.043 63.3488 159.465 64.0837 159.761 64.9951C160.057 65.9066 160.206 67.0117 160.206 68.3105V80H155.25V68.2764C155.25 67.4561 155.13 66.8123 154.891 66.3452C154.663 65.8667 154.327 65.5306 153.882 65.3369C153.449 65.1318 152.914 65.0293 152.276 65.0293C151.569 65.0293 150.966 65.1603 150.464 65.4224C149.974 65.6844 149.581 66.049 149.285 66.5161C148.989 66.9718 148.772 67.5073 148.636 68.1226C148.499 68.7378 148.431 69.3986 148.431 70.105ZM173.929 75.8301V67.5928C173.929 67.0003 173.832 66.4933 173.638 66.0718C173.444 65.6388 173.143 65.3027 172.732 65.0635C172.334 64.8242 171.815 64.7046 171.177 64.7046C170.63 64.7046 170.158 64.8014 169.759 64.9951C169.36 65.1774 169.052 65.4451 168.836 65.7983C168.619 66.1401 168.511 66.5446 168.511 67.0117H163.589C163.589 66.2256 163.772 65.4793 164.136 64.7729C164.501 64.0666 165.031 63.4456 165.726 62.9102C166.421 62.3633 167.247 61.936 168.204 61.6284C169.172 61.3208 170.254 61.167 171.451 61.167C172.886 61.167 174.162 61.4062 175.279 61.8848C176.395 62.3633 177.273 63.0811 177.911 64.0381C178.56 64.9951 178.885 66.1914 178.885 67.627V75.5396C178.885 76.5535 178.947 77.3853 179.073 78.0347C179.198 78.6727 179.38 79.231 179.62 79.7095V80H174.646C174.407 79.4987 174.225 78.8721 174.1 78.1201C173.986 77.3568 173.929 76.5934 173.929 75.8301ZM174.578 68.7378L174.612 71.5234H171.861C171.211 71.5234 170.647 71.5975 170.169 71.7456C169.69 71.8937 169.297 72.1045 168.99 72.3779C168.682 72.64 168.454 72.9476 168.306 73.3008C168.169 73.654 168.101 74.0413 168.101 74.4629C168.101 74.8844 168.198 75.2661 168.392 75.6079C168.585 75.9383 168.864 76.2004 169.229 76.394C169.594 76.5763 170.021 76.6675 170.511 76.6675C171.251 76.6675 171.895 76.5194 172.442 76.2231C172.989 75.9269 173.41 75.5623 173.707 75.1294C174.014 74.6965 174.174 74.2863 174.185 73.8989L175.484 75.9839C175.302 76.451 175.051 76.9352 174.732 77.4365C174.424 77.9378 174.031 78.4106 173.553 78.855C173.074 79.2879 172.499 79.6468 171.827 79.9316C171.154 80.2051 170.357 80.3418 169.434 80.3418C168.261 80.3418 167.195 80.1082 166.238 79.6411C165.293 79.1626 164.541 78.5075 163.982 77.6758C163.436 76.8327 163.162 75.8757 163.162 74.8047C163.162 73.8363 163.344 72.9761 163.709 72.2241C164.074 71.4722 164.609 70.8398 165.315 70.3271C166.033 69.8031 166.928 69.41 167.999 69.1479C169.069 68.8745 170.311 68.7378 171.724 68.7378H174.578ZM187.601 65.3369V80H182.662V61.5088H187.293L187.601 65.3369ZM186.917 70.105H185.55C185.55 68.8175 185.704 67.6326 186.011 66.5503C186.33 65.4565 186.792 64.5109 187.396 63.7134C188.011 62.9045 188.768 62.2778 189.668 61.8335C190.569 61.3892 191.611 61.167 192.796 61.167C193.616 61.167 194.368 61.2923 195.052 61.543C195.735 61.7822 196.322 62.1639 196.812 62.688C197.313 63.2007 197.701 63.8729 197.974 64.7046C198.248 65.5249 198.384 66.5104 198.384 67.6611V80H193.462V68.208C193.462 67.3649 193.348 66.7155 193.121 66.2598C192.893 65.804 192.568 65.485 192.146 65.3027C191.736 65.1204 191.241 65.0293 190.66 65.0293C190.022 65.0293 189.463 65.1603 188.985 65.4224C188.518 65.6844 188.13 66.049 187.823 66.5161C187.515 66.9718 187.287 67.5073 187.139 68.1226C186.991 68.7378 186.917 69.3986 186.917 70.105ZM197.923 69.541L196.163 69.7632C196.163 68.5555 196.311 67.4333 196.607 66.3965C196.915 65.3597 197.365 64.4482 197.957 63.6621C198.561 62.876 199.307 62.2664 200.196 61.8335C201.084 61.3892 202.11 61.167 203.272 61.167C204.161 61.167 204.97 61.298 205.699 61.5601C206.428 61.8107 207.049 62.2152 207.562 62.7734C208.086 63.3203 208.484 64.0381 208.758 64.9268C209.043 65.8154 209.185 66.9035 209.185 68.1909V80H204.246V68.1909C204.246 67.3364 204.132 66.687 203.904 66.2427C203.688 65.7869 203.369 65.4736 202.947 65.3027C202.537 65.1204 202.047 65.0293 201.478 65.0293C200.885 65.0293 200.367 65.1489 199.922 65.3882C199.478 65.616 199.108 65.9351 198.812 66.3452C198.515 66.7554 198.293 67.2339 198.145 67.7808C197.997 68.3162 197.923 68.903 197.923 69.541ZM217.918 65.3369V80H212.979V61.5088H217.61L217.918 65.3369ZM217.234 70.105H215.867C215.867 68.8175 216.021 67.6326 216.329 66.5503C216.648 65.4565 217.109 64.5109 217.713 63.7134C218.328 62.9045 219.086 62.2778 219.986 61.8335C220.886 61.3892 221.928 61.167 223.113 61.167C223.934 61.167 224.686 61.2923 225.369 61.543C226.053 61.7822 226.639 62.1639 227.129 62.688C227.631 63.2007 228.018 63.8729 228.292 64.7046C228.565 65.5249 228.702 66.5104 228.702 67.6611V80H223.78V68.208C223.78 67.3649 223.666 66.7155 223.438 66.2598C223.21 65.804 222.885 65.485 222.464 65.3027C222.054 65.1204 221.558 65.0293 220.977 65.0293C220.339 65.0293 219.781 65.1603 219.302 65.4224C218.835 65.6844 218.448 66.049 218.14 66.5161C217.833 66.9718 217.605 67.5073 217.457 68.1226C217.308 68.7378 217.234 69.3986 217.234 70.105ZM228.24 69.541L226.48 69.7632C226.48 68.5555 226.628 67.4333 226.924 66.3965C227.232 65.3597 227.682 64.4482 228.274 63.6621C228.878 62.876 229.625 62.2664 230.513 61.8335C231.402 61.3892 232.427 61.167 233.589 61.167C234.478 61.167 235.287 61.298 236.016 61.5601C236.745 61.8107 237.366 62.2152 237.879 62.7734C238.403 63.3203 238.802 64.0381 239.075 64.9268C239.36 65.8154 239.502 66.9035 239.502 68.1909V80H234.563V68.1909C234.563 67.3364 234.45 66.687 234.222 66.2427C234.005 65.7869 233.686 65.4736 233.265 65.3027C232.854 65.1204 232.365 65.0293 231.795 65.0293C231.202 65.0293 230.684 65.1489 230.24 65.3882C229.795 65.616 229.425 65.9351 229.129 66.3452C228.833 66.7554 228.611 67.2339 228.462 67.7808C228.314 68.3162 228.24 68.903 228.24 69.541ZM253.294 75.8301V67.5928C253.294 67.0003 253.197 66.4933 253.003 66.0718C252.81 65.6388 252.508 65.3027 252.098 65.0635C251.699 64.8242 251.181 64.7046 250.542 64.7046C249.996 64.7046 249.523 64.8014 249.124 64.9951C248.725 65.1774 248.418 65.4451 248.201 65.7983C247.985 66.1401 247.876 66.5446 247.876 67.0117H242.955C242.955 66.2256 243.137 65.4793 243.501 64.7729C243.866 64.0666 244.396 63.4456 245.091 62.9102C245.786 62.3633 246.612 61.936 247.569 61.6284C248.537 61.3208 249.62 61.167 250.816 61.167C252.251 61.167 253.528 61.4062 254.644 61.8848C255.761 62.3633 256.638 63.0811 257.276 64.0381C257.925 64.9951 258.25 66.1914 258.25 67.627V75.5396C258.25 76.5535 258.313 77.3853 258.438 78.0347C258.563 78.6727 258.746 79.231 258.985 79.7095V80H254.012C253.772 79.4987 253.59 78.8721 253.465 78.1201C253.351 77.3568 253.294 76.5934 253.294 75.8301ZM253.943 68.7378L253.978 71.5234H251.226C250.577 71.5234 250.013 71.5975 249.534 71.7456C249.056 71.8937 248.663 72.1045 248.355 72.3779C248.047 72.64 247.819 72.9476 247.671 73.3008C247.535 73.654 247.466 74.0413 247.466 74.4629C247.466 74.8844 247.563 75.2661 247.757 75.6079C247.951 75.9383 248.23 76.2004 248.594 76.394C248.959 76.5763 249.386 76.6675 249.876 76.6675C250.617 76.6675 251.26 76.5194 251.807 76.2231C252.354 75.9269 252.776 75.5623 253.072 75.1294C253.379 74.6965 253.539 74.2863 253.55 73.8989L254.849 75.9839C254.667 76.451 254.416 76.9352 254.097 77.4365C253.79 77.9378 253.396 78.4106 252.918 78.855C252.439 79.2879 251.864 79.6468 251.192 79.9316C250.52 80.2051 249.722 80.3418 248.799 80.3418C247.626 80.3418 246.561 80.1082 245.604 79.6411C244.658 79.1626 243.906 78.5075 243.348 77.6758C242.801 76.8327 242.527 75.8757 242.527 74.8047C242.527 73.8363 242.71 72.9761 243.074 72.2241C243.439 71.4722 243.974 70.8398 244.681 70.3271C245.398 69.8031 246.293 69.41 247.364 69.1479C248.435 68.8745 249.677 68.7378 251.089 68.7378H253.943ZM272.964 75.9668V53.75H277.92V80H273.46L272.964 75.9668ZM261.275 70.9766V70.6177C261.275 69.2049 261.434 67.9232 261.753 66.7725C262.072 65.6104 262.54 64.6134 263.155 63.7817C263.77 62.95 264.528 62.3063 265.428 61.8506C266.328 61.3949 267.353 61.167 268.504 61.167C269.586 61.167 270.532 61.3949 271.341 61.8506C272.161 62.3063 272.856 62.9557 273.426 63.7988C274.007 64.6305 274.474 65.616 274.827 66.7554C275.18 67.8833 275.437 69.1195 275.596 70.4639V71.25C275.437 72.5374 275.18 73.7337 274.827 74.8389C274.474 75.944 274.007 76.9124 273.426 77.7441C272.856 78.5645 272.161 79.2025 271.341 79.6582C270.521 80.1139 269.563 80.3418 268.47 80.3418C267.319 80.3418 266.294 80.1082 265.394 79.6411C264.505 79.174 263.753 78.5189 263.138 77.6758C262.534 76.8327 262.072 75.8415 261.753 74.7021C261.434 73.5628 261.275 72.321 261.275 70.9766ZM266.197 70.6177V70.9766C266.197 71.7399 266.254 72.452 266.368 73.1128C266.493 73.7736 266.692 74.3604 266.966 74.873C267.251 75.3743 267.615 75.7674 268.06 76.0522C268.515 76.3257 269.068 76.4624 269.717 76.4624C270.56 76.4624 271.255 76.2744 271.802 75.8984C272.349 75.5111 272.765 74.9813 273.05 74.3091C273.346 73.6369 273.517 72.8621 273.562 71.9849V69.7461C273.528 69.0283 273.426 68.3846 273.255 67.8149C273.095 67.2339 272.856 66.7383 272.537 66.3281C272.229 65.918 271.842 65.599 271.375 65.3711C270.919 65.1432 270.378 65.0293 269.751 65.0293C269.113 65.0293 268.567 65.1774 268.111 65.4736C267.655 65.7585 267.285 66.1515 267 66.6528C266.727 67.1541 266.521 67.7466 266.385 68.4302C266.259 69.1024 266.197 69.8315 266.197 70.6177ZM300.906 59.3726L294.139 80H288.687L297.933 55.1172H301.402L300.906 59.3726ZM306.529 80L299.744 59.3726L299.197 55.1172H302.701L311.998 80H306.529ZM306.221 70.7373V74.7534H293.079V70.7373H306.221ZM318.372 65.3369V80H313.433V61.5088H318.064L318.372 65.3369ZM317.688 70.105H316.321C316.321 68.8175 316.475 67.6326 316.783 66.5503C317.102 65.4565 317.563 64.5109 318.167 63.7134C318.782 62.9045 319.54 62.2778 320.44 61.8335C321.34 61.3892 322.382 61.167 323.567 61.167C324.388 61.167 325.14 61.2923 325.823 61.543C326.507 61.7822 327.094 62.1639 327.583 62.688C328.085 63.2007 328.472 63.8729 328.746 64.7046C329.019 65.5249 329.156 66.5104 329.156 67.6611V80H324.234V68.208C324.234 67.3649 324.12 66.7155 323.892 66.2598C323.664 65.804 323.34 65.485 322.918 65.3027C322.508 65.1204 322.012 65.0293 321.431 65.0293C320.793 65.0293 320.235 65.1603 319.756 65.4224C319.289 65.6844 318.902 66.049 318.594 66.5161C318.287 66.9718 318.059 67.5073 317.911 68.1226C317.763 68.7378 317.688 69.3986 317.688 70.105ZM328.694 69.541L326.934 69.7632C326.934 68.5555 327.082 67.4333 327.378 66.3965C327.686 65.3597 328.136 64.4482 328.729 63.6621C329.332 62.876 330.079 62.2664 330.967 61.8335C331.856 61.3892 332.881 61.167 334.043 61.167C334.932 61.167 335.741 61.298 336.47 61.5601C337.199 61.8107 337.82 62.2152 338.333 62.7734C338.857 63.3203 339.256 64.0381 339.529 64.9268C339.814 65.8154 339.957 66.9035 339.957 68.1909V80H335.018V68.1909C335.018 67.3364 334.904 66.687 334.676 66.2427C334.459 65.7869 334.14 65.4736 333.719 65.3027C333.309 65.1204 332.819 65.0293 332.249 65.0293C331.657 65.0293 331.138 65.1489 330.694 65.3882C330.25 65.616 329.879 65.9351 329.583 66.3452C329.287 66.7554 329.065 67.2339 328.917 67.7808C328.768 68.3162 328.694 68.903 328.694 69.541ZM348.689 65.3369V80H343.75V61.5088H348.382L348.689 65.3369ZM348.006 70.105H346.639C346.639 68.8175 346.792 67.6326 347.1 66.5503C347.419 65.4565 347.881 64.5109 348.484 63.7134C349.1 62.9045 349.857 62.2778 350.757 61.8335C351.657 61.3892 352.7 61.167 353.885 61.167C354.705 61.167 355.457 61.2923 356.141 61.543C356.824 61.7822 357.411 62.1639 357.901 62.688C358.402 63.2007 358.79 63.8729 359.063 64.7046C359.336 65.5249 359.473 66.5104 359.473 67.6611V80H354.551V68.208C354.551 67.3649 354.437 66.7155 354.209 66.2598C353.982 65.804 353.657 65.485 353.235 65.3027C352.825 65.1204 352.33 65.0293 351.749 65.0293C351.111 65.0293 350.552 65.1603 350.074 65.4224C349.607 65.6844 349.219 66.049 348.912 66.5161C348.604 66.9718 348.376 67.5073 348.228 68.1226C348.08 68.7378 348.006 69.3986 348.006 70.105ZM359.012 69.541L357.251 69.7632C357.251 68.5555 357.4 67.4333 357.696 66.3965C358.003 65.3597 358.453 64.4482 359.046 63.6621C359.65 62.876 360.396 62.2664 361.285 61.8335C362.173 61.3892 363.199 61.167 364.361 61.167C365.25 61.167 366.058 61.298 366.788 61.5601C367.517 61.8107 368.138 62.2152 368.65 62.7734C369.174 63.3203 369.573 64.0381 369.847 64.9268C370.132 65.8154 370.274 66.9035 370.274 68.1909V80H365.335V68.1909C365.335 67.3364 365.221 66.687 364.993 66.2427C364.777 65.7869 364.458 65.4736 364.036 65.3027C363.626 65.1204 363.136 65.0293 362.566 65.0293C361.974 65.0293 361.456 65.1489 361.011 65.3882C360.567 65.616 360.197 65.9351 359.9 66.3452C359.604 66.7554 359.382 67.2339 359.234 67.7808C359.086 68.3162 359.012 68.903 359.012 69.541ZM384.065 75.8301V67.5928C384.065 67.0003 383.969 66.4933 383.775 66.0718C383.581 65.6388 383.279 65.3027 382.869 65.0635C382.47 64.8242 381.952 64.7046 381.314 64.7046C380.767 64.7046 380.294 64.8014 379.896 64.9951C379.497 65.1774 379.189 65.4451 378.973 65.7983C378.756 66.1401 378.648 66.5446 378.648 67.0117H373.726C373.726 66.2256 373.908 65.4793 374.273 64.7729C374.638 64.0666 375.167 63.4456 375.862 62.9102C376.557 62.3633 377.383 61.936 378.34 61.6284C379.309 61.3208 380.391 61.167 381.587 61.167C383.023 61.167 384.299 61.4062 385.416 61.8848C386.532 62.3633 387.409 63.0811 388.047 64.0381C388.697 64.9951 389.021 66.1914 389.021 67.627V75.5396C389.021 76.5535 389.084 77.3853 389.209 78.0347C389.335 78.6727 389.517 79.231 389.756 79.7095V80H384.783C384.544 79.4987 384.362 78.8721 384.236 78.1201C384.122 77.3568 384.065 76.5934 384.065 75.8301ZM384.715 68.7378L384.749 71.5234H381.998C381.348 71.5234 380.784 71.5975 380.306 71.7456C379.827 71.8937 379.434 72.1045 379.126 72.3779C378.819 72.64 378.591 72.9476 378.443 73.3008C378.306 73.654 378.238 74.0413 378.238 74.4629C378.238 74.8844 378.335 75.2661 378.528 75.6079C378.722 75.9383 379.001 76.2004 379.366 76.394C379.73 76.5763 380.158 76.6675 380.647 76.6675C381.388 76.6675 382.032 76.5194 382.579 76.2231C383.125 75.9269 383.547 75.5623 383.843 75.1294C384.151 74.6965 384.31 74.2863 384.322 73.8989L385.621 75.9839C385.438 76.451 385.188 76.9352 384.869 77.4365C384.561 77.9378 384.168 78.4106 383.689 78.855C383.211 79.2879 382.636 79.6468 381.963 79.9316C381.291 80.2051 380.494 80.3418 379.571 80.3418C378.397 80.3418 377.332 80.1082 376.375 79.6411C375.429 79.1626 374.677 78.5075 374.119 77.6758C373.572 76.8327 373.299 75.8757 373.299 74.8047C373.299 73.8363 373.481 72.9761 373.846 72.2241C374.21 71.4722 374.746 70.8398 375.452 70.3271C376.17 69.8031 377.064 69.41 378.135 69.1479C379.206 68.8745 380.448 68.7378 381.861 68.7378H384.715ZM402.813 74.8901C402.813 74.5369 402.71 74.2179 402.505 73.9331C402.3 73.6483 401.919 73.3862 401.36 73.147C400.813 72.8963 400.022 72.6685 398.985 72.4634C398.051 72.2583 397.179 72.002 396.37 71.6943C395.573 71.3753 394.878 70.9937 394.285 70.5493C393.704 70.105 393.248 69.5809 392.918 68.9771C392.588 68.3618 392.422 67.6611 392.422 66.875C392.422 66.1003 392.588 65.3711 392.918 64.6875C393.26 64.0039 393.744 63.4001 394.371 62.876C395.009 62.3405 395.783 61.9246 396.695 61.6284C397.618 61.3208 398.654 61.167 399.805 61.167C401.412 61.167 402.79 61.4233 403.941 61.936C405.103 62.4487 405.992 63.1551 406.607 64.0552C407.234 64.9438 407.547 65.9578 407.547 67.0972H402.625C402.625 66.6187 402.522 66.1914 402.317 65.8154C402.124 65.4281 401.816 65.1261 401.395 64.9097C400.984 64.6818 400.449 64.5679 399.788 64.5679C399.241 64.5679 398.768 64.6647 398.37 64.8584C397.971 65.0407 397.663 65.2913 397.447 65.6104C397.242 65.918 397.139 66.2598 397.139 66.6357C397.139 66.9206 397.196 67.1769 397.31 67.4048C397.435 67.6213 397.635 67.8206 397.908 68.0029C398.182 68.1852 398.535 68.3561 398.968 68.5156C399.412 68.6637 399.959 68.8005 400.608 68.9258C401.941 69.1992 403.132 69.5581 404.18 70.0024C405.228 70.4354 406.06 71.0278 406.675 71.7798C407.291 72.5203 407.598 73.4945 407.598 74.7021C407.598 75.5225 407.416 76.2744 407.051 76.958C406.687 77.6416 406.163 78.2397 405.479 78.7524C404.795 79.2537 403.975 79.6468 403.018 79.9316C402.072 80.2051 401.007 80.3418 399.822 80.3418C398.102 80.3418 396.644 80.0342 395.447 79.4189C394.262 78.8037 393.362 78.0233 392.747 77.0776C392.143 76.1206 391.841 75.1408 391.841 74.1382H396.507C396.53 74.8104 396.701 75.3516 397.02 75.7617C397.35 76.1719 397.766 76.4681 398.267 76.6504C398.78 76.8327 399.332 76.9238 399.925 76.9238C400.563 76.9238 401.093 76.8384 401.514 76.6675C401.936 76.4852 402.255 76.2459 402.471 75.9497C402.699 75.6421 402.813 75.2889 402.813 74.8901ZM415.596 53.75V80H410.674V53.75H415.596ZM414.896 70.105H413.545C413.557 68.8175 413.728 67.6326 414.058 66.5503C414.389 65.4565 414.861 64.5109 415.477 63.7134C416.092 62.9045 416.827 62.2778 417.681 61.8335C418.547 61.3892 419.504 61.167 420.552 61.167C421.464 61.167 422.29 61.298 423.03 61.5601C423.782 61.8107 424.426 62.2209 424.961 62.7905C425.508 63.3488 425.93 64.0837 426.226 64.9951C426.522 65.9066 426.67 67.0117 426.67 68.3105V80H421.714V68.2764C421.714 67.4561 421.595 66.8123 421.355 66.3452C421.128 65.8667 420.792 65.5306 420.347 65.3369C419.914 65.1318 419.379 65.0293 418.741 65.0293C418.034 65.0293 417.431 65.1603 416.929 65.4224C416.439 65.6844 416.046 66.049 415.75 66.5161C415.454 66.9718 415.237 67.5073 415.101 68.1226C414.964 68.7378 414.896 69.3986 414.896 70.105Z" fill="#888888"/>
<rect x="92" y="181" width="1179" height="80" rx="13.3333" fill="#060047"/>
<rect x="105" y="194.333" width="212" height="53.3333" rx="6.66667" fill="#FF5F9E" fill-opacity="0.8"/>
<path d="M183.833 213.167V228.333H180.177V213.167H183.833ZM189.729 219.479V222.292H182.792V219.479H189.729ZM190.323 213.167V215.99H182.792V213.167H190.323ZM195.385 212.333V228.333H191.865V212.333H195.385ZM204.135 225.594V217.063H207.656V228.333H204.365L204.135 225.594ZM204.469 223.302L205.385 223.281C205.385 224.038 205.295 224.74 205.115 225.385C204.934 226.024 204.667 226.58 204.313 227.052C203.965 227.524 203.535 227.892 203.021 228.156C202.514 228.413 201.927 228.542 201.26 228.542C200.705 228.542 200.194 228.465 199.729 228.313C199.271 228.153 198.875 227.906 198.542 227.573C198.208 227.233 197.948 226.799 197.76 226.271C197.58 225.736 197.49 225.097 197.49 224.354V217.063H201V224.375C201 224.625 201.031 224.84 201.094 225.021C201.156 225.201 201.247 225.354 201.365 225.479C201.483 225.597 201.628 225.688 201.802 225.75C201.983 225.806 202.188 225.833 202.417 225.833C202.944 225.833 203.358 225.722 203.656 225.5C203.955 225.278 204.163 224.976 204.281 224.594C204.406 224.212 204.469 223.781 204.469 223.302ZM215.531 217.063V219.5H208.74V217.063H215.531ZM210.167 214.26H213.677V224.656C213.677 224.955 213.712 225.188 213.781 225.354C213.851 225.514 213.969 225.629 214.135 225.698C214.309 225.76 214.538 225.792 214.823 225.792C215.024 225.792 215.191 225.788 215.323 225.781C215.455 225.767 215.58 225.75 215.698 225.729V228.24C215.399 228.337 215.087 228.41 214.76 228.458C214.434 228.514 214.087 228.542 213.719 228.542C212.969 228.542 212.326 228.424 211.792 228.188C211.264 227.951 210.861 227.58 210.583 227.073C210.306 226.566 210.167 225.906 210.167 225.094V214.26ZM222.865 217.063V219.5H216.073V217.063H222.865ZM217.5 214.26H221.01V224.656C221.01 224.955 221.045 225.188 221.115 225.354C221.184 225.514 221.302 225.629 221.469 225.698C221.642 225.76 221.872 225.792 222.156 225.792C222.358 225.792 222.524 225.788 222.656 225.781C222.788 225.767 222.913 225.75 223.031 225.729V228.24C222.733 228.337 222.42 228.41 222.094 228.458C221.767 228.514 221.42 228.542 221.052 228.542C220.302 228.542 219.66 228.424 219.125 228.188C218.597 227.951 218.194 227.58 217.917 227.073C217.639 226.566 217.5 225.906 217.5 225.094V214.26ZM229.719 228.542C228.802 228.542 227.983 228.399 227.26 228.115C226.538 227.823 225.927 227.424 225.427 226.917C224.934 226.41 224.556 225.826 224.292 225.167C224.035 224.507 223.906 223.809 223.906 223.073V222.677C223.906 221.851 224.021 221.087 224.25 220.385C224.479 219.677 224.819 219.059 225.271 218.531C225.722 218.004 226.288 217.594 226.969 217.302C227.649 217.004 228.441 216.854 229.344 216.854C230.142 216.854 230.858 216.983 231.49 217.24C232.122 217.497 232.656 217.865 233.094 218.344C233.538 218.823 233.875 219.403 234.104 220.083C234.34 220.764 234.458 221.528 234.458 222.375V223.802H225.25V221.604H231.031V221.333C231.038 220.958 230.972 220.639 230.833 220.375C230.701 220.111 230.507 219.91 230.25 219.771C229.993 219.632 229.681 219.563 229.312 219.563C228.931 219.563 228.615 219.646 228.365 219.813C228.122 219.979 227.931 220.208 227.792 220.5C227.66 220.785 227.566 221.115 227.51 221.49C227.455 221.865 227.427 222.26 227.427 222.677V223.073C227.427 223.49 227.483 223.868 227.594 224.208C227.712 224.549 227.878 224.84 228.094 225.083C228.316 225.319 228.58 225.504 228.885 225.635C229.198 225.767 229.552 225.833 229.948 225.833C230.427 225.833 230.899 225.743 231.365 225.563C231.83 225.382 232.229 225.083 232.562 224.667L234.156 226.563C233.927 226.889 233.601 227.205 233.177 227.51C232.76 227.816 232.26 228.066 231.677 228.26C231.094 228.448 230.441 228.542 229.719 228.542ZM239.427 219.854V228.333H235.917V217.063H239.198L239.427 219.854ZM242.76 216.979L242.698 220.24C242.559 220.226 242.372 220.208 242.135 220.188C241.899 220.167 241.701 220.156 241.542 220.156C241.132 220.156 240.778 220.205 240.479 220.302C240.187 220.392 239.944 220.531 239.75 220.719C239.562 220.899 239.424 221.129 239.333 221.406C239.25 221.684 239.212 222.007 239.219 222.375L238.583 221.958C238.583 221.201 238.656 220.514 238.802 219.896C238.955 219.271 239.17 218.733 239.448 218.281C239.726 217.823 240.062 217.472 240.458 217.229C240.854 216.979 241.299 216.854 241.792 216.854C241.965 216.854 242.135 216.865 242.302 216.885C242.476 216.906 242.628 216.938 242.76 216.979Z" fill="white"/>
<rect x="337" y="194.333" width="212" height="53.3333" rx="6.66667" fill="#FF5F9E" fill-opacity="0.8"/>
<path d="M415.042 228.333H411.677L411.698 225.521H415.042C415.736 225.521 416.323 225.354 416.802 225.021C417.288 224.688 417.656 224.191 417.906 223.531C418.163 222.865 418.292 222.045 418.292 221.073V220.417C418.292 219.688 418.219 219.049 418.073 218.5C417.934 217.944 417.726 217.483 417.448 217.115C417.17 216.74 416.823 216.458 416.406 216.271C415.997 216.083 415.524 215.99 414.99 215.99H411.615V213.167H414.99C416.017 213.167 416.958 213.344 417.812 213.698C418.674 214.045 419.417 214.545 420.042 215.198C420.674 215.844 421.16 216.611 421.5 217.5C421.847 218.382 422.021 219.361 422.021 220.438V221.073C422.021 222.142 421.847 223.122 421.5 224.01C421.16 224.899 420.677 225.667 420.052 226.313C419.427 226.958 418.687 227.458 417.833 227.813C416.986 228.16 416.056 228.333 415.042 228.333ZM413.771 213.167V228.333H410.115V213.167H413.771ZM423.323 222.813V222.594C423.323 221.767 423.441 221.007 423.677 220.313C423.913 219.611 424.26 219.004 424.719 218.49C425.177 217.976 425.743 217.576 426.417 217.292C427.09 217 427.868 216.854 428.75 216.854C429.639 216.854 430.42 217 431.094 217.292C431.774 217.576 432.344 217.976 432.802 218.49C433.26 219.004 433.608 219.611 433.844 220.313C434.08 221.007 434.198 221.767 434.198 222.594V222.813C434.198 223.632 434.08 224.392 433.844 225.094C433.608 225.788 433.26 226.396 432.802 226.917C432.344 227.431 431.778 227.83 431.104 228.115C430.431 228.399 429.653 228.542 428.771 228.542C427.889 228.542 427.108 228.399 426.427 228.115C425.747 227.83 425.177 227.431 424.719 226.917C424.26 226.396 423.913 225.788 423.677 225.094C423.441 224.392 423.323 223.632 423.323 222.813ZM426.833 222.594V222.813C426.833 223.236 426.865 223.632 426.927 224C426.99 224.368 427.094 224.691 427.24 224.969C427.385 225.24 427.583 225.451 427.833 225.604C428.083 225.757 428.396 225.833 428.771 225.833C429.139 225.833 429.444 225.757 429.687 225.604C429.937 225.451 430.135 225.24 430.281 224.969C430.427 224.691 430.531 224.368 430.594 224C430.656 223.632 430.687 223.236 430.687 222.813V222.594C430.687 222.184 430.656 221.799 430.594 221.438C430.531 221.069 430.427 220.747 430.281 220.469C430.135 220.184 429.937 219.962 429.687 219.802C429.437 219.642 429.125 219.563 428.75 219.563C428.382 219.563 428.073 219.642 427.823 219.802C427.58 219.962 427.385 220.184 427.24 220.469C427.094 220.747 426.99 221.069 426.927 221.438C426.865 221.799 426.833 222.184 426.833 222.594ZM440.521 225.833C440.847 225.833 441.125 225.774 441.354 225.656C441.59 225.531 441.767 225.358 441.885 225.135C442.01 224.906 442.069 224.632 442.062 224.313H445.365C445.372 225.16 445.163 225.903 444.74 226.542C444.323 227.174 443.753 227.667 443.031 228.021C442.316 228.368 441.507 228.542 440.604 228.542C439.722 228.542 438.951 228.399 438.292 228.115C437.632 227.823 437.08 227.42 436.635 226.906C436.198 226.385 435.868 225.778 435.646 225.083C435.431 224.389 435.323 223.635 435.323 222.823V222.583C435.323 221.771 435.431 221.017 435.646 220.323C435.868 219.622 436.198 219.014 436.635 218.5C437.08 217.979 437.628 217.576 438.281 217.292C438.941 217 439.708 216.854 440.583 216.854C441.521 216.854 442.347 217.031 443.062 217.385C443.785 217.74 444.351 218.254 444.76 218.927C445.17 219.601 445.372 220.417 445.365 221.375H442.062C442.069 221.035 442.017 220.729 441.906 220.458C441.795 220.188 441.622 219.972 441.385 219.813C441.156 219.646 440.861 219.563 440.5 219.563C440.139 219.563 439.847 219.642 439.625 219.802C439.403 219.962 439.233 220.184 439.115 220.469C439.003 220.747 438.927 221.066 438.885 221.427C438.851 221.788 438.833 222.174 438.833 222.583V222.823C438.833 223.24 438.851 223.632 438.885 224C438.927 224.361 439.007 224.681 439.125 224.958C439.243 225.229 439.413 225.444 439.635 225.604C439.858 225.757 440.153 225.833 440.521 225.833ZM450.406 212.323V228.333H446.896V212.323H450.406ZM457.615 217.063L452.719 222.802L450.156 225.365L448.625 223.135L450.76 220.354L453.406 217.063H457.615ZM453.854 228.333L450.844 223.198L453.438 221.354L457.875 228.333H453.854ZM463.781 228.542C462.865 228.542 462.045 228.399 461.323 228.115C460.601 227.823 459.99 227.424 459.49 226.917C458.997 226.41 458.618 225.826 458.354 225.167C458.097 224.507 457.969 223.809 457.969 223.073V222.677C457.969 221.851 458.083 221.087 458.312 220.385C458.542 219.677 458.882 219.059 459.333 218.531C459.785 218.004 460.351 217.594 461.031 217.302C461.712 217.004 462.503 216.854 463.406 216.854C464.205 216.854 464.92 216.983 465.552 217.24C466.184 217.497 466.719 217.865 467.156 218.344C467.601 218.823 467.937 219.403 468.167 220.083C468.403 220.764 468.521 221.528 468.521 222.375V223.802H459.312V221.604H465.094V221.333C465.101 220.958 465.035 220.639 464.896 220.375C464.764 220.111 464.569 219.91 464.312 219.771C464.056 219.632 463.743 219.563 463.375 219.563C462.993 219.563 462.677 219.646 462.427 219.813C462.184 219.979 461.993 220.208 461.854 220.5C461.722 220.785 461.628 221.115 461.573 221.49C461.517 221.865 461.49 222.26 461.49 222.677V223.073C461.49 223.49 461.545 223.868 461.656 224.208C461.774 224.549 461.941 224.84 462.156 225.083C462.378 225.319 462.642 225.504 462.948 225.635C463.26 225.767 463.615 225.833 464.01 225.833C464.49 225.833 464.962 225.743 465.427 225.563C465.892 225.382 466.292 225.083 466.625 224.667L468.219 226.563C467.99 226.889 467.663 227.205 467.24 227.51C466.823 227.816 466.323 228.066 465.74 228.26C465.156 228.448 464.503 228.542 463.781 228.542ZM473.49 219.854V228.333H469.979V217.063H473.26L473.49 219.854ZM476.823 216.979L476.76 220.24C476.622 220.226 476.434 220.208 476.198 220.188C475.962 220.167 475.764 220.156 475.604 220.156C475.194 220.156 474.84 220.205 474.542 220.302C474.25 220.392 474.007 220.531 473.812 220.719C473.625 220.899 473.486 221.129 473.396 221.406C473.312 221.684 473.274 222.007 473.281 222.375L472.646 221.958C472.646 221.201 472.719 220.514 472.865 219.896C473.017 219.271 473.233 218.733 473.51 218.281C473.788 217.823 474.125 217.472 474.521 217.229C474.917 216.979 475.361 216.854 475.854 216.854C476.028 216.854 476.198 216.865 476.365 216.885C476.538 216.906 476.691 216.938 476.823 216.979Z" fill="white"/>
<rect x="569" y="194.136" width="212" height="53.3333" rx="6.66667" fill="#FF5F9E" fill-opacity="0.8"/>
<rect x="798" y="193.909" width="212" height="53.3333" rx="6.66667" fill="#FF5F9E" fill-opacity="0.8"/>
<path d="M641.906 212.97V228.136H638.25V212.97H641.906ZM647.802 219.282V222.095H640.865V219.282H647.802ZM648.396 212.97V215.793H640.865V212.97H648.396ZM655.25 225.303V220.657C655.25 220.338 655.205 220.063 655.115 219.834C655.024 219.605 654.882 219.428 654.688 219.303C654.493 219.171 654.233 219.105 653.906 219.105C653.642 219.105 653.417 219.15 653.229 219.24C653.042 219.331 652.899 219.466 652.802 219.647C652.705 219.827 652.656 220.056 652.656 220.334H649.146C649.146 219.813 649.26 219.331 649.49 218.886C649.726 218.435 650.059 218.043 650.49 217.709C650.927 217.376 651.448 217.119 652.052 216.938C652.663 216.751 653.344 216.657 654.094 216.657C654.99 216.657 655.788 216.806 656.49 217.105C657.198 217.404 657.757 217.852 658.167 218.449C658.576 219.039 658.781 219.782 658.781 220.678V225.293C658.781 226.029 658.823 226.588 658.906 226.97C658.99 227.345 659.108 227.674 659.26 227.959V228.136H655.74C655.573 227.789 655.448 227.365 655.365 226.865C655.288 226.359 655.25 225.838 655.25 225.303ZM655.677 221.251L655.698 223.126H654.146C653.819 223.126 653.542 223.171 653.313 223.261C653.09 223.352 652.91 223.477 652.771 223.636C652.639 223.789 652.542 223.963 652.479 224.157C652.424 224.352 652.396 224.556 652.396 224.772C652.396 224.98 652.444 225.168 652.542 225.334C652.646 225.494 652.785 225.619 652.958 225.709C653.132 225.799 653.326 225.845 653.542 225.845C653.931 225.845 654.26 225.772 654.531 225.626C654.809 225.473 655.021 225.289 655.167 225.074C655.313 224.859 655.385 224.657 655.385 224.47L656.156 225.907C656.017 226.185 655.858 226.466 655.677 226.751C655.503 227.036 655.285 227.299 655.021 227.543C654.764 227.779 654.448 227.973 654.073 228.126C653.698 228.272 653.243 228.345 652.708 228.345C652.014 228.345 651.375 228.202 650.792 227.918C650.215 227.633 649.753 227.237 649.406 226.73C649.059 226.216 648.885 225.626 648.885 224.959C648.885 224.376 648.99 223.855 649.198 223.397C649.413 222.938 649.736 222.549 650.167 222.23C650.597 221.911 651.146 221.668 651.813 221.501C652.479 221.334 653.264 221.251 654.167 221.251H655.677ZM666.635 224.97C666.635 224.775 666.569 224.609 666.438 224.47C666.313 224.324 666.09 224.192 665.771 224.074C665.451 223.949 665.003 223.824 664.427 223.699C663.878 223.581 663.361 223.424 662.875 223.23C662.396 223.036 661.976 222.799 661.615 222.522C661.253 222.244 660.969 221.914 660.76 221.532C660.559 221.15 660.458 220.713 660.458 220.22C660.458 219.74 660.559 219.289 660.76 218.865C660.969 218.435 661.271 218.056 661.667 217.73C662.069 217.397 662.559 217.136 663.135 216.949C663.712 216.754 664.368 216.657 665.104 216.657C666.118 216.657 666.993 216.813 667.729 217.126C668.465 217.431 669.031 217.862 669.427 218.418C669.83 218.966 670.031 219.602 670.031 220.324H666.521C666.521 220.039 666.472 219.796 666.375 219.595C666.285 219.393 666.135 219.24 665.927 219.136C665.719 219.025 665.441 218.97 665.094 218.97C664.851 218.97 664.628 219.015 664.427 219.105C664.233 219.195 664.076 219.32 663.958 219.48C663.84 219.64 663.781 219.827 663.781 220.043C663.781 220.195 663.816 220.334 663.885 220.459C663.962 220.577 664.076 220.688 664.229 220.793C664.382 220.89 664.576 220.98 664.813 221.063C665.049 221.14 665.333 221.209 665.667 221.272C666.424 221.411 667.132 221.609 667.792 221.865C668.451 222.122 668.986 222.487 669.396 222.959C669.813 223.431 670.021 224.067 670.021 224.865C670.021 225.365 669.906 225.827 669.677 226.251C669.448 226.668 669.118 227.036 668.688 227.355C668.257 227.668 667.74 227.911 667.135 228.084C666.531 228.258 665.851 228.345 665.094 228.345C664.017 228.345 663.108 228.154 662.365 227.772C661.622 227.383 661.059 226.897 660.677 226.313C660.302 225.723 660.115 225.126 660.115 224.522H663.385C663.399 224.869 663.483 225.154 663.635 225.376C663.795 225.598 664.007 225.761 664.271 225.865C664.535 225.97 664.84 226.022 665.188 226.022C665.507 226.022 665.771 225.977 665.979 225.886C666.194 225.796 666.358 225.674 666.469 225.522C666.58 225.362 666.635 225.178 666.635 224.97ZM677.604 216.865V219.303H670.813V216.865H677.604ZM672.24 214.063H675.75V224.459C675.75 224.758 675.785 224.99 675.854 225.157C675.924 225.317 676.042 225.431 676.208 225.501C676.382 225.563 676.611 225.595 676.896 225.595C677.097 225.595 677.264 225.591 677.396 225.584C677.528 225.57 677.653 225.553 677.771 225.532V228.043C677.472 228.14 677.16 228.213 676.833 228.261C676.507 228.317 676.16 228.345 675.792 228.345C675.042 228.345 674.399 228.227 673.865 227.99C673.337 227.754 672.934 227.383 672.656 226.876C672.378 226.369 672.24 225.709 672.24 224.897V214.063ZM685.594 216.157L681.896 228.136H677.969L683.542 212.97H686.031L685.594 216.157ZM688.656 228.136L684.948 216.157L684.469 212.97H686.99L692.594 228.136H688.656ZM688.51 222.48V225.303H680.729V222.48H688.51ZM699.76 222.99H695.99V220.168H699.76C700.274 220.168 700.691 220.081 701.01 219.907C701.33 219.734 701.563 219.494 701.708 219.188C701.861 218.876 701.938 218.525 701.938 218.136C701.938 217.72 701.861 217.334 701.708 216.98C701.563 216.626 701.33 216.341 701.01 216.126C700.691 215.904 700.274 215.793 699.76 215.793H697.365V228.136H693.708V212.97H699.76C700.976 212.97 702.021 213.192 702.896 213.636C703.778 214.081 704.455 214.692 704.927 215.47C705.399 216.24 705.635 217.122 705.635 218.115C705.635 219.095 705.399 219.949 704.927 220.678C704.455 221.407 703.778 221.977 702.896 222.386C702.021 222.789 700.976 222.99 699.76 222.99ZM711.49 212.97V228.136H707.844V212.97H711.49Z" fill="white"/>
<path d="M859.656 213.591H862.635L866.021 224.143L869.406 213.591H872.385L867.229 228.758H864.813L859.656 213.591ZM857.844 213.591H860.927L861.5 225.216V228.758H857.844V213.591ZM871.115 213.591H874.208V228.758H870.542V225.216L871.115 213.591ZM875.948 223.237V223.018C875.948 222.192 876.066 221.431 876.302 220.737C876.538 220.036 876.885 219.428 877.344 218.914C877.802 218.4 878.368 218.001 879.042 217.716C879.715 217.425 880.493 217.279 881.375 217.279C882.264 217.279 883.045 217.425 883.719 217.716C884.399 218.001 884.969 218.4 885.427 218.914C885.885 219.428 886.233 220.036 886.469 220.737C886.705 221.431 886.823 222.192 886.823 223.018V223.237C886.823 224.056 886.705 224.817 886.469 225.518C886.233 226.213 885.885 226.82 885.427 227.341C884.969 227.855 884.403 228.254 883.729 228.539C883.056 228.824 882.278 228.966 881.396 228.966C880.514 228.966 879.733 228.824 879.052 228.539C878.372 228.254 877.802 227.855 877.344 227.341C876.885 226.82 876.538 226.213 876.302 225.518C876.066 224.817 875.948 224.056 875.948 223.237ZM879.458 223.018V223.237C879.458 223.661 879.49 224.056 879.552 224.425C879.615 224.793 879.719 225.116 879.865 225.393C880.01 225.664 880.208 225.876 880.458 226.029C880.708 226.181 881.021 226.258 881.396 226.258C881.764 226.258 882.069 226.181 882.313 226.029C882.563 225.876 882.76 225.664 882.906 225.393C883.052 225.116 883.156 224.793 883.219 224.425C883.281 224.056 883.313 223.661 883.313 223.237V223.018C883.313 222.609 883.281 222.223 883.219 221.862C883.156 221.494 883.052 221.171 882.906 220.893C882.76 220.609 882.563 220.386 882.313 220.227C882.063 220.067 881.75 219.987 881.375 219.987C881.007 219.987 880.698 220.067 880.448 220.227C880.205 220.386 880.01 220.609 879.865 220.893C879.719 221.171 879.615 221.494 879.552 221.862C879.49 222.223 879.458 222.609 879.458 223.018ZM891.833 219.893V228.758H888.323V217.487H891.615L891.833 219.893ZM891.417 222.737L890.594 222.758C890.594 221.897 890.698 221.129 890.906 220.456C891.115 219.775 891.41 219.199 891.792 218.727C892.174 218.254 892.628 217.897 893.156 217.654C893.691 217.404 894.285 217.279 894.938 217.279C895.458 217.279 895.934 217.355 896.365 217.508C896.802 217.661 897.177 217.907 897.49 218.247C897.809 218.588 898.052 219.039 898.219 219.602C898.392 220.157 898.479 220.845 898.479 221.664V228.758H894.948V221.654C894.948 221.202 894.885 220.859 894.76 220.622C894.635 220.379 894.455 220.213 894.219 220.122C893.983 220.032 893.694 219.987 893.354 219.987C892.993 219.987 892.688 220.056 892.438 220.195C892.188 220.334 891.986 220.529 891.833 220.779C891.688 221.022 891.58 221.31 891.51 221.643C891.448 221.977 891.417 222.341 891.417 222.737ZM907.51 217.487H910.698V228.32C910.698 229.362 910.458 230.244 909.979 230.966C909.5 231.695 908.83 232.247 907.969 232.622C907.115 233.004 906.115 233.195 904.969 233.195C904.462 233.195 903.944 233.129 903.417 232.997C902.889 232.872 902.396 232.685 901.938 232.435C901.479 232.185 901.094 231.876 900.781 231.508L902.25 229.445C902.535 229.765 902.892 230.036 903.323 230.258C903.753 230.487 904.26 230.602 904.844 230.602C905.351 230.602 905.774 230.511 906.115 230.331C906.462 230.15 906.726 229.886 906.906 229.539C907.087 229.199 907.177 228.786 907.177 228.3V220.154L907.51 217.487ZM900.021 223.258V223.039C900.021 222.185 900.125 221.407 900.333 220.706C900.549 219.997 900.854 219.39 901.25 218.883C901.653 218.369 902.139 217.973 902.708 217.695C903.278 217.418 903.92 217.279 904.635 217.279C905.406 217.279 906.038 217.428 906.531 217.727C907.031 218.018 907.431 218.428 907.729 218.956C908.035 219.484 908.271 220.102 908.438 220.81C908.611 221.511 908.757 222.268 908.875 223.081V223.341C908.757 224.105 908.594 224.827 908.385 225.508C908.184 226.181 907.92 226.779 907.594 227.3C907.267 227.82 906.858 228.23 906.365 228.529C905.878 228.82 905.295 228.966 904.615 228.966C903.906 228.966 903.267 228.824 902.698 228.539C902.135 228.254 901.653 227.855 901.25 227.341C900.854 226.827 900.549 226.223 900.333 225.529C900.125 224.834 900.021 224.077 900.021 223.258ZM903.531 223.039V223.258C903.531 223.681 903.569 224.074 903.646 224.435C903.729 224.796 903.854 225.116 904.021 225.393C904.188 225.664 904.392 225.876 904.635 226.029C904.885 226.181 905.177 226.258 905.51 226.258C906.017 226.258 906.427 226.15 906.74 225.935C907.052 225.72 907.278 225.414 907.417 225.018C907.556 224.622 907.615 224.157 907.594 223.622V222.8C907.608 222.341 907.576 221.938 907.5 221.591C907.424 221.237 907.302 220.942 907.135 220.706C906.976 220.47 906.76 220.293 906.49 220.175C906.226 220.05 905.906 219.987 905.531 219.987C905.205 219.987 904.917 220.063 904.667 220.216C904.417 220.369 904.208 220.584 904.042 220.862C903.875 221.133 903.747 221.456 903.656 221.831C903.573 222.199 903.531 222.602 903.531 223.039ZM912.281 223.237V223.018C912.281 222.192 912.399 221.431 912.635 220.737C912.872 220.036 913.219 219.428 913.677 218.914C914.135 218.4 914.701 218.001 915.375 217.716C916.049 217.425 916.826 217.279 917.708 217.279C918.597 217.279 919.378 217.425 920.052 217.716C920.733 218.001 921.302 218.4 921.76 218.914C922.219 219.428 922.566 220.036 922.802 220.737C923.038 221.431 923.156 222.192 923.156 223.018V223.237C923.156 224.056 923.038 224.817 922.802 225.518C922.566 226.213 922.219 226.82 921.76 227.341C921.302 227.855 920.736 228.254 920.063 228.539C919.389 228.824 918.611 228.966 917.729 228.966C916.847 228.966 916.066 228.824 915.385 228.539C914.705 228.254 914.135 227.855 913.677 227.341C913.219 226.82 912.872 226.213 912.635 225.518C912.399 224.817 912.281 224.056 912.281 223.237ZM915.792 223.018V223.237C915.792 223.661 915.823 224.056 915.885 224.425C915.948 224.793 916.052 225.116 916.198 225.393C916.344 225.664 916.542 225.876 916.792 226.029C917.042 226.181 917.354 226.258 917.729 226.258C918.097 226.258 918.403 226.181 918.646 226.029C918.896 225.876 919.094 225.664 919.24 225.393C919.385 225.116 919.49 224.793 919.552 224.425C919.615 224.056 919.646 223.661 919.646 223.237V223.018C919.646 222.609 919.615 222.223 919.552 221.862C919.49 221.494 919.385 221.171 919.24 220.893C919.094 220.609 918.896 220.386 918.646 220.227C918.396 220.067 918.083 219.987 917.708 219.987C917.34 219.987 917.031 220.067 916.781 220.227C916.538 220.386 916.344 220.609 916.198 220.893C916.052 221.171 915.948 221.494 915.885 221.862C915.823 222.223 915.792 222.609 915.792 223.018ZM929.813 228.758H926.448L926.469 225.945H929.813C930.507 225.945 931.094 225.779 931.573 225.445C932.059 225.112 932.427 224.616 932.677 223.956C932.934 223.289 933.063 222.47 933.063 221.497V220.841C933.063 220.112 932.99 219.473 932.844 218.925C932.705 218.369 932.497 217.907 932.219 217.539C931.941 217.164 931.594 216.883 931.177 216.695C930.767 216.508 930.295 216.414 929.76 216.414H926.385V213.591H929.76C930.788 213.591 931.729 213.768 932.583 214.122C933.444 214.47 934.188 214.97 934.813 215.622C935.444 216.268 935.931 217.036 936.271 217.925C936.618 218.806 936.792 219.786 936.792 220.862V221.497C936.792 222.567 936.618 223.546 936.271 224.435C935.931 225.324 935.448 226.091 934.823 226.737C934.198 227.383 933.458 227.883 932.604 228.237C931.757 228.584 930.826 228.758 929.813 228.758ZM928.542 213.591V228.758H924.885V213.591H928.542ZM944.885 222.31H940.979L940.958 219.914H944.125C944.694 219.914 945.149 219.852 945.49 219.727C945.83 219.595 946.076 219.404 946.229 219.154C946.389 218.904 946.469 218.591 946.469 218.216C946.469 217.786 946.389 217.438 946.229 217.175C946.069 216.911 945.816 216.72 945.469 216.602C945.128 216.477 944.688 216.414 944.146 216.414H942.354V228.758H938.698V213.591H944.146C945.083 213.591 945.92 213.678 946.656 213.852C947.392 214.018 948.017 214.275 948.531 214.622C949.052 214.97 949.448 215.407 949.719 215.935C949.99 216.456 950.125 217.07 950.125 217.779C950.125 218.397 949.993 218.977 949.729 219.518C949.465 220.06 949.024 220.501 948.406 220.841C947.795 221.175 946.958 221.348 945.896 221.362L944.885 222.31ZM944.74 228.758H940.094L941.344 225.945H944.74C945.24 225.945 945.639 225.869 945.938 225.716C946.243 225.556 946.462 225.348 946.594 225.091C946.733 224.827 946.802 224.536 946.802 224.216C946.802 223.827 946.736 223.491 946.604 223.206C946.479 222.921 946.278 222.702 946 222.55C945.722 222.39 945.351 222.31 944.885 222.31H941.813L941.833 219.914H945.51L946.365 220.872C947.378 220.831 948.181 220.973 948.771 221.3C949.368 221.626 949.795 222.056 950.052 222.591C950.309 223.126 950.438 223.685 950.438 224.268C950.438 225.261 950.222 226.091 949.792 226.758C949.368 227.425 948.733 227.925 947.885 228.258C947.038 228.591 945.99 228.758 944.74 228.758Z" fill="white"/>
</svg>
